<?xml version="1.0" standalone="no"?>
<!DOCTYPE svg PUBLIC "-//W3C//DTD SVG 20010904//EN"
 "http://www.w3.org/TR/2001/REC-SVG-20010904/DTD/svg10.dtd">
<svg version="1.0" xmlns="http://www.w3.org/2000/svg"
 width="649.000000pt" height="649.000000pt" viewBox="0 0 649.000000 649.000000"
 preserveAspectRatio="xMidYMid meet">
<metadata>
Created by potrace 1.14, written by Peter Selinger 2001-2017
</metadata>
<g transform="translate(0.000000,649.000000) scale(0.100000,-0.100000)"
fill="#000000" stroke="none">
<path d="M5620 4050 c-206 -26 -470 -96 -739 -196 -167 -63 -480 -198 -610
-264 -55 -27 -69 -30 -161 -30 -55 0 -100 -3 -100 -7 0 -5 -36 -46 -80 -93
l-79 -85 -1 203 0 203 -82 -3 -83 -3 0 -407 0 -408 -200 -79 c-525 -209 -1054
-315 -1405 -281 -158 15 -269 43 -375 95 -104 50 -180 112 -249 202 -60 78
-73 72 -58 -27 15 -101 59 -189 131 -261 67 -67 142 -106 266 -141 122 -33
367 -31 565 5 177 32 391 90 593 161 213 74 604 236 717 297 29 15 68 26 110
29 l65 5 3 96 c3 92 4 97 32 124 34 33 35 32 78 -45 16 -30 45 -82 64 -115
l34 -60 78 -3 c44 -2 84 2 89 7 6 6 -19 59 -73 153 -46 79 -93 159 -104 179
l-20 37 96 104 97 105 113 46 c504 206 922 306 1278 307 276 0 458 -51 615
-172 54 -42 128 -125 151 -170 8 -15 19 -28 24 -28 15 0 12 78 -5 143 -48 184
-174 306 -371 358 -92 24 -287 33 -404 19z"/>
<path d="M87 3973 c-2 -5 -2 -14 -1 -20 1 -7 2 -234 3 -503 l1 -491 98 3 97 3
5 355 c3 195 8 344 11 330 68 -273 145 -570 160 -622 l20 -68 99 0 c54 0 101
4 105 9 5 10 133 503 164 636 l16 70 5 -355 5 -355 100 0 100 0 3 508 2 507
-162 -2 -162 -3 -17 -60 c-9 -33 -47 -176 -85 -318 -37 -141 -71 -254 -75
-250 -4 5 -44 149 -90 321 l-83 312 -158 0 c-86 0 -159 -3 -161 -7z"/>
<path d="M2059 3971 c-2 -6 -2 -235 1 -508 l5 -498 215 -3 c118 -1 245 2 282
8 224 34 343 190 355 465 9 207 -37 346 -146 448 -94 87 -110 90 -432 95 -190
2 -278 0 -280 -7z m501 -193 c51 -21 97 -79 116 -144 12 -44 15 -87 12 -188
-3 -122 -6 -136 -33 -191 -45 -89 -68 -99 -237 -103 l-138 -4 0 319 c0 176 3
323 8 328 12 12 234 -1 272 -17z"/>
<path d="M1502 3790 c-115 -18 -227 -100 -276 -204 -37 -78 -49 -148 -43 -246
9 -167 85 -288 220 -351 148 -69 361 -44 510 58 l37 26 -2 166 -3 166 -177 3
-178 2 -5 -23 c-4 -13 -5 -46 -3 -73 l3 -49 93 -3 92 -3 0 -43 c0 -50 -14 -65
-83 -91 -115 -43 -224 -13 -279 76 -53 86 -59 236 -12 334 60 126 279 142 346
26 26 -46 35 -48 133 -27 58 12 60 13 57 42 -8 73 -87 159 -177 193 -60 23
-180 33 -253 21z"/>
<path d="M3155 3552 c-22 -11 -52 -32 -67 -48 -30 -33 -62 -100 -50 -108 4 -3
39 -10 77 -17 57 -10 70 -9 74 2 2 7 15 24 28 37 22 21 31 24 80 20 60 -5 86
-25 81 -63 -3 -22 -21 -28 -173 -64 -97 -23 -128 -40 -162 -91 -28 -41 -31
-125 -7 -173 47 -91 180 -124 290 -73 28 13 55 29 59 36 5 8 12 2 21 -19 13
-31 14 -31 87 -31 40 0 76 3 80 6 3 3 1 18 -6 33 -6 15 -13 116 -17 236 -6
238 -11 256 -82 303 -38 25 -50 27 -157 30 -97 2 -122 0 -156 -16z m211 -420
c-41 -80 -176 -73 -176 9 0 25 21 58 38 60 4 0 39 8 77 18 l70 19 3 -39 c2
-21 -4 -51 -12 -67z"/>
<path d="M4402 3544 c-56 -28 -99 -79 -104 -124 -3 -23 2 -26 64 -39 l67 -14
34 37 c30 31 40 36 81 36 36 0 52 -5 71 -25 47 -46 32 -64 -74 -84 -127 -25
-186 -49 -224 -90 -86 -95 -39 -248 86 -282 62 -17 149 -6 203 26 25 15 46 25
47 23 21 -40 26 -43 83 -46 32 -2 68 -1 80 2 21 6 21 7 6 48 -11 32 -15 91
-17 233 -2 218 -10 248 -78 293 -37 25 -50 27 -156 30 -109 3 -119 2 -169 -24z
m235 -356 c-7 -58 -33 -92 -82 -108 -40 -13 -78 0 -100 34 -14 22 -15 29 -3
53 11 24 26 31 93 50 44 12 84 22 89 22 5 1 6 -22 3 -51z"/>
<path d="M5663 3545 c-40 -18 -60 -36 -83 -72 -17 -26 -29 -55 -28 -63 2 -10
26 -20 70 -29 l67 -14 34 37 c29 31 41 36 78 36 57 0 89 -22 89 -60 0 -28 -2
-29 -97 -50 -178 -40 -209 -56 -242 -122 -26 -54 -26 -100 -2 -153 32 -71 93
-105 186 -105 52 0 137 29 151 51 10 16 24 9 34 -16 9 -24 14 -25 84 -25 41 0
77 4 80 9 4 5 1 22 -6 38 -7 17 -14 113 -17 243 -7 246 -8 251 -95 295 -44 22
-63 25 -150 25 -86 0 -109 -4 -153 -25z m230 -352 c-7 -61 -26 -91 -70 -109
-80 -34 -164 46 -105 99 14 13 129 50 173 56 4 1 4 -20 2 -46z"/>
<path d="M4870 3554 c0 -6 186 -470 219 -547 l21 -48 71 3 c83 3 72 -8 133
143 129 319 175 440 167 448 -4 4 -43 7 -86 5 l-78 -3 -58 -154 c-32 -85 -61
-168 -65 -184 -8 -37 -16 -27 -42 48 -32 94 -100 273 -107 285 -6 10 -175 15
-175 4z"/>
</g>
</svg>
